# xmcd
#
# Track frame offsets:
#	182
#	15500
#	30872
#	45797
#	61200
#	79340
#	99477
#	119170
#	132075
#	148100
#	164835
#
# Disc length: 2415 seconds
#
# Revision: 2
# Processed by: cddbd v1.5.1PL2 Copyright (c) Steve Scherf et al.
# Submitted via: audiograbber 1.83.01
#
DISCID=8c096d0b
DTITLE=Kenny Chesney - I Will Stand
DYEAR=1997
DGENRE=Country
TTITLE0=She's Got It All
TTITLE1=You Win, I Win, We Lose
TTITLE2=She Gets That Way
TTITLE3=I Will Stand
TTITLE4=That's Why I'm Here
TTITLE5=Steamy Windows
TTITLE6=From Hillbilly Heaven To Honky Tonk Hell (Featuring George Jones and Trac
TTITLE6=y Lawrence)
TTITLE7=She Always Says It First
TTITLE8=Lonely, Needin' Loving
TTITLE9=A Chance
TTITLE10=When I Close My Eyes (Acoustic Version)
EXTD=
EXTT0=
EXTT1=
EXTT2=
EXTT3=
EXTT4=
EXTT5=
EXTT6=
EXTT7=
EXTT8=
EXTT9=
EXTT10=
PLAYORDER=
